<svg xmlns="http://www.w3.org/2000/svg" width="24" height="24" fill="none" viewBox="0 0 24 24" stroke-width="2"><path fill="currentColor" d="M11.8 1c-1.669 0-2.748 0-3.654.294a6 6 0 0 0-3.852 3.852C3.999 6.052 3.999 7.13 4 8.8V22a1 1 0 0 0 1.65.76l1.794-1.538c.936-.802 1.596-1.367 2.15-1.773.543-.398.926-.599 1.287-.704a4 4 0 0 1 2.238 0c.361.105.744.306 1.288.704.553.406 1.213.971 2.148 1.773l1.794 1.537A1 1 0 0 0 20 22L20 8.8c0-1.669 0-2.748-.294-3.654a6 6 0 0 0-3.852-3.852C14.948.999 13.869.999 12.2 1z"/></svg>