<svg xmlns="http://www.w3.org/2000/svg" width="24" height="24" fill="none" viewBox="0 0 24 24" stroke-width="2"><path fill="currentColor" d="M7.584 1.999c.38 0 .708-.001 1.001.057a3 3 0 0 1 2.357 2.357c.059.293.058.621.058 1.002v.168c0 .38 0 .708-.058 1a3 3 0 0 1-2.357 2.358c-.293.058-.62.058-1.001.058H5.416c-.38 0-.708 0-1.001-.058a3 3 0 0 1-2.357-2.357C1.999 6.29 2 5.964 2 5.583v-.168c0-.381 0-.709.058-1.002a3 3 0 0 1 2.357-2.357c.293-.058.62-.058 1.001-.057zM17.839 1.999c.527 0 .982 0 1.356.03.395.032.789.104 1.167.297a3 3 0 0 1 1.311 1.31c.193.379.264.772.296 1.168.031.374.031.829.031 1.356v11.677c0 .527 0 .982-.03 1.357-.033.395-.104.788-.297 1.167a3 3 0 0 1-1.311 1.31c-.378.193-.772.265-1.167.297-.375.03-.83.03-1.356.03h-.678c-.527 0-.982 0-1.356-.03-.395-.032-.789-.104-1.167-.296a3 3 0 0 1-1.311-1.311c-.193-.379-.264-.772-.296-1.167-.031-.375-.031-.83-.031-1.357V6.16c0-.527 0-.982.03-1.356.033-.396.104-.789.297-1.167a3 3 0 0 1 1.311-1.311c.378-.193.772-.265 1.167-.297.375-.03.83-.03 1.356-.03zM6.839 10.999c.527 0 .981 0 1.356.03.395.033.789.104 1.167.297a3 3 0 0 1 1.311 1.31c.193.379.264.772.296 1.168.031.374.031.829.031 1.356v2.677c0 .527 0 .982-.03 1.357-.033.395-.104.788-.297 1.167a3 3 0 0 1-1.311 1.31c-.378.193-.772.265-1.167.297-.375.03-.83.03-1.356.03H6.16c-.527 0-.981 0-1.356-.03-.395-.032-.789-.104-1.167-.296a3 3 0 0 1-1.311-1.311c-.193-.379-.264-.772-.296-1.167C2 18.819 2 18.364 2 17.837V15.16c0-.527 0-.982.03-1.356.033-.396.104-.789.297-1.167a3 3 0 0 1 1.311-1.311c.378-.193.772-.264 1.167-.297.375-.03.83-.03 1.356-.03z"/></svg>