<svg xmlns="http://www.w3.org/2000/svg" width="24" height="24" fill="none" viewBox="0 0 24 24" stroke-width="2"><path fill="currentColor" d="M2 16.415c0-.381 0-.709.058-1.002a3 3 0 0 1 2.357-2.357c.293-.058.62-.058 1.001-.057h.168c.38 0 .709-.001 1.001.057a3 3 0 0 1 2.357 2.357c.059.293.058.621.058 1.002v2.167c0 .381 0 .709-.058 1.002a3 3 0 0 1-2.357 2.357c-.292.058-.62.058-1.001.058h-.168c-.38 0-.708 0-1.001-.058a3 3 0 0 1-2.357-2.357C1.999 19.29 2 18.964 2 18.582zM2 6.16c0-.527 0-.982.03-1.356.033-.396.104-.79.297-1.167a3 3 0 0 1 1.311-1.311c.378-.193.772-.265 1.167-.297C5.18 2 5.635 2 6.162 2h11.677c.527 0 .982 0 1.356.03.395.032.789.104 1.167.297a3 3 0 0 1 1.311 1.31c.193.379.264.772.297 1.168.03.374.03.829.03 1.356v.677c0 .527 0 .982-.03 1.357-.033.395-.104.788-.297 1.167a3 3 0 0 1-1.31 1.31c-.38.193-.773.265-1.168.297-.375.03-.83.03-1.356.03H6.162c-.528 0-.982 0-1.357-.03-.395-.032-.788-.104-1.167-.296a3 3 0 0 1-1.31-1.311c-.194-.379-.265-.772-.297-1.167C2 7.819 2 7.364 2 6.837zM11 17.16c0-.527 0-.982.03-1.357.033-.395.104-.788.297-1.166a3 3 0 0 1 1.311-1.312c.379-.192.772-.264 1.167-.296.375-.03.83-.03 1.357-.03h2.677c.527 0 .982 0 1.356.03.395.032.789.104 1.167.297a3 3 0 0 1 1.311 1.31c.193.379.264.772.297 1.168.03.374.03.829.03 1.356v.677c0 .527 0 .982-.03 1.357-.033.395-.104.788-.297 1.166a3 3 0 0 1-1.31 1.312c-.38.192-.773.264-1.168.296-.375.03-.83.03-1.356.03h-2.677c-.528 0-.982 0-1.357-.03-.395-.032-.788-.104-1.167-.296a3 3 0 0 1-1.31-1.312c-.194-.378-.265-.771-.297-1.166-.03-.375-.03-.83-.03-1.357z"/></svg>