<svg xmlns="http://www.w3.org/2000/svg" width="24" height="24" fill="none" viewBox="0 0 24 24" stroke-width="2"><path fill="currentColor" fill-rule="evenodd" d="M10.956 2c-1.363 0-2.447 0-3.321.071-.896.074-1.66.227-2.359.583a6 6 0 0 0-2.622 2.622c-.356.7-.51 1.463-.583 2.359C2 8.509 2 9.593 2 10.956v2.088c0 1.363 0 2.447.071 3.321.074.896.227 1.66.583 2.359a6 6 0 0 0 2.622 2.622c.7.356 1.463.51 2.359.583.874.071 1.958.071 3.321.071h2.088c1.363 0 2.447 0 3.321-.071.896-.074 1.66-.227 2.359-.583a6 6 0 0 0 2.622-2.622c.356-.7.51-1.463.583-2.359.071-.874.071-1.958.071-3.321v-2.088c0-1.363 0-2.447-.071-3.321-.074-.896-.227-1.66-.583-2.359a6 6 0 0 0-2.622-2.622c-.7-.356-1.463-.51-2.359-.583C15.491 2 14.407 2 13.044 2zm2.032 8.343A1 1 0 0 0 11 10.5V17a1 1 0 1 0 2 0v-3.5a1.5 1.5 0 0 1 3 0V17a1 1 0 1 0 2 0v-3.5a3.5 3.5 0 0 0-5.012-3.157M9 7a1 1 0 1 0-2 0v.01a1 1 0 0 0 2 0zm0 3.5a1 1 0 0 0-2 0V17a1 1 0 1 0 2 0z" clip-rule="evenodd"/></svg>