<svg xmlns="http://www.w3.org/2000/svg" width="24" height="24" fill="none" viewBox="0 0 24 24" stroke-width="2"><path fill="currentColor" fill-rule="evenodd" d="M11.79 2c-1.663 0-3.84.576-5.621 2.022C4.351 5.5 3 7.841 3 11.222c0 3.41 1.615 6.214 3.439 8.14.914.965 1.9 1.73 2.806 2.262.866.508 1.786.876 2.545.876s1.678-.369 2.544-.876c.906-.531 1.892-1.297 2.806-2.263 1.824-1.925 3.439-4.728 3.439-8.139 0-3.381-1.35-5.723-3.17-7.2C15.63 2.576 13.453 2 11.79 2m-3.421 8.79a3.421 3.421 0 1 1 6.842 0 3.421 3.421 0 0 1-6.842 0" clip-rule="evenodd"/></svg>