<svg xmlns="http://www.w3.org/2000/svg" width="24" height="24" fill="none" viewBox="0 0 24 24" stroke-width="2"><path fill="currentColor" d="M8.1 3.379c-.29.097-.576.24-.888.397l-3.001 1.5c-.532.265-.999.498-1.354.86a3 3 0 0 0-.693 1.122C2 7.738 2 8.26 2 8.853v6.069c0 .794 0 1.456.047 1.98.047.534.152 1.074.466 1.54a3 3 0 0 0 2.098 1.297c.557.072 1.088-.076 1.586-.271.49-.193 1.082-.49 1.792-.844l.042-.021.069-.035zM9.9 18.568l.07.035 3.242 1.62c.312.158.598.3.888.398V5.43l-.069-.034-3.242-1.621A7 7 0 0 0 9.9 3.38zM15.9 5.432v15.19c.29-.098.576-.241.889-.398l3-1.5c.532-.265 1-.498 1.354-.86a3 3 0 0 0 .693-1.122c.166-.48.165-1.002.164-1.595V9.078c0-.794 0-1.456-.047-1.98-.047-.534-.152-1.074-.466-1.54a3 3 0 0 0-2.098-1.297c-.557-.072-1.087.075-1.585.271-.49.193-1.083.49-1.793.845l-.042.02z"/></svg>