<svg xmlns="http://www.w3.org/2000/svg" width="24" height="24" fill="none" viewBox="0 0 24 24" stroke-width="2"><path fill="currentColor" fill-rule="evenodd" d="M7.088 6.088C7.528 3.785 9.568 2 12 2s4.472 1.785 4.912 4.088c.366.051.71.137 1.044.281a4.5 4.5 0 0 1 1.88 1.52c.3.421.486.883.64 1.407.147.504.28 1.126.443 1.885l.41 1.915c.275 1.285.496 2.314.6 3.15.106.854.107 1.618-.136 2.343a5 5 0 0 1-2.194 2.713c-.658.39-1.405.55-2.262.624-.84.074-1.892.074-3.206.074H9.869c-1.314 0-2.367 0-3.206-.074-.857-.075-1.604-.234-2.262-.624a5 5 0 0 1-2.194-2.713c-.243-.725-.242-1.489-.136-2.343.104-.836.325-1.865.6-3.15l.41-1.915c.163-.759.296-1.38.444-1.885.153-.524.34-.986.64-1.407a4.5 4.5 0 0 1 1.88-1.52c.333-.144.677-.23 1.043-.281M9.18 6h5.64c-.424-1.155-1.54-2-2.82-2s-2.397.845-2.82 2m1.79 6.243a1 1 0 1 0-1.94-.486l-1 4a1 1 0 1 0 1.94.486zm4-.486a1 1 0 1 0-1.94.486l1 4a1 1 0 1 0 1.94-.485z" clip-rule="evenodd"/></svg>