<svg xmlns="http://www.w3.org/2000/svg" width="24" height="24" fill="none" viewBox="0 0 24 24" stroke-width="2"><path fill="currentColor" d="M2.13 6.015c-.703-2.391 1.538-4.632 3.93-3.863a54.9 54.9 0 0 1 12.875 6.073c.112.072.244.152.387.24.45.272 1.016.616 1.46 1.005C21.43 10.039 22 10.843 22 12s-.57 1.961-1.219 2.53c-.443.39-1.01.733-1.459 1.006a19 19 0 0 0-.387.239 54.9 54.9 0 0 1-12.874 6.074c-2.393.768-4.634-1.473-3.93-3.864l1.255-4.267a1 1 0 0 1 .96-.718h5.489a1 1 0 1 0 0-2h-5.49a1 1 0 0 1-.959-.718z"/></svg>