<svg xmlns="http://www.w3.org/2000/svg" width="24" height="24" fill="none" viewBox="0 0 24 24" stroke-width="2"><path fill="currentColor" fill-rule="evenodd" d="M2 12C2 6.477 6.477 2 12 2s10 4.477 10 10-4.477 10-10 10S2 17.523 2 12m9.305-4.019a2.25 2.25 0 0 1 1.39 0c.303.099.55.27.776.462.215.183.456.424.736.703l.646.647c.28.28.521.52.704.736.192.226.363.473.461.776a2.25 2.25 0 0 1 0 1.39c-.098.303-.269.55-.461.776-.183.215-.424.456-.703.736l-.647.647c-.28.28-.521.52-.736.703-.227.192-.473.363-.776.462a2.25 2.25 0 0 1-1.39 0c-.303-.099-.55-.27-.777-.462-.215-.183-.456-.424-.735-.703l-.647-.647c-.28-.28-.52-.52-.703-.736-.193-.226-.363-.473-.462-.776a2.25 2.25 0 0 1 0-1.39c.099-.303.27-.55.462-.776.182-.215.423-.456.703-.736l.647-.647c.28-.28.52-.52.735-.703.227-.192.474-.363.777-.462" clip-rule="evenodd"/></svg>