<svg xmlns="http://www.w3.org/2000/svg" width="24" height="24" fill="none" viewBox="0 0 24 24" stroke-width="2"><path fill="currentColor" fill-rule="evenodd" d="M18.994 6.344c-.017-.728-.075-1.336-.298-1.875a4 4 0 0 0-2.165-2.165c-.418-.173-.852-.241-1.321-.273C14.757 2 14.204 2 13.534 2H9.956c-1.363 0-2.447 0-3.321.071-.896.074-1.66.227-2.359.583a6 6 0 0 0-2.622 2.622c-.356.7-.51 1.463-.582 2.359C1 8.509 1 9.593 1 10.956v3.666c0 1.23-.001 2.569.457 3.674a6 6 0 0 0 3.247 3.247c.602.25 1.244.356 1.992.407.732.05 1.634.05 2.768.05h5.072c1.135 0 2.037 0 2.768-.05.748-.05 1.39-.157 1.992-.407a6 6 0 0 0 3.247-3.247c.458-1.105.458-2.444.457-3.674v-.158c0-1.134 0-2.036-.05-2.768-.05-.748-.157-1.39-.407-1.992a6 6 0 0 0-3.247-3.247q-.15-.062-.302-.113m-3.92-2.318C14.696 4.001 14.212 4 13.5 4H10c-1.417 0-2.419 0-3.202.065-.772.063-1.244.182-1.614.371a4 4 0 0 0-1.748 1.748c-.158.31-.267.69-.335 1.256a6 6 0 0 1 1.603-.983c.602-.25 1.244-.356 1.992-.407C7.428 6 8.33 6 9.464 6H14.6c.93 0 1.711 0 2.379.032-.022-.415-.062-.628-.132-.797a2 2 0 0 0-1.083-1.083c-.133-.055-.324-.1-.692-.126M14 11a1 1 0 1 0 0 2h3a1 1 0 1 0 0-2z" clip-rule="evenodd"/></svg>