<svg xmlns="http://www.w3.org/2000/svg" width="24" height="24" fill="none" viewBox="0 0 24 24" stroke-width="2"><path fill="currentColor" d="M8.48 2.102C8.13 1.999 7.76 1.999 7.395 2H5.58c-.34 0-.661 0-.92.024-.257.023-.642.081-.978.34a1.75 1.75 0 0 0-.68 1.317c-.018.423.158.77.287.993.13.226.316.487.512.765l5.608 7.917-6.112 6.986a1 1 0 1 0 1.505 1.317l5.796-6.624 3.918 5.53.05.071c.211.3.423.6.71.827a2.5 2.5 0 0 0 .843.435c.35.104.719.103 1.085.102h1.815c.34 0 .661 0 .92-.023.257-.024.642-.082.978-.34.41-.317.66-.799.68-1.317.017-.423-.158-.771-.287-.994a11 11 0 0 0-.513-.765l-5.943-8.39 5.698-6.512a1 1 0 0 0-1.505-1.317l-5.382 6.15-3.582-5.057-.05-.071c-.211-.299-.424-.6-.71-.826a2.5 2.5 0 0 0-.843-.436"/></svg>