<svg xmlns="http://www.w3.org/2000/svg" width="24" height="24" fill="none" stroke="currentColor" stroke-linecap="round" stroke-linejoin="round" viewBox="0 0 24 24" stroke-width="2"><path d="M13.85 22H18a2 2 0 0 0 2-2V8a2 2 0 0 0-.586-1.414l-4-4A2 2 0 0 0 14 2H6a2 2 0 0 0-2 2v6.6"/><path d="M14 2v5a1 1 0 0 0 1 1h5M3.305 19.53l.923-.382m0-2.296-.924-.383m2.548-1.241-.383-.923m.383 6.467-.383.924m2.679-6.468.383-.923m-.001 7.391-.382-.924m1.625-3.92.922-.383m-.922 2.679.922.383"/><circle cx="7" cy="18" r="3"/></svg>