<svg xmlns="http://www.w3.org/2000/svg" width="24" height="24" fill="none" viewBox="0 0 24 24" stroke-width="2"><path fill="currentColor" fill-rule="evenodd" d="M21.75 20.4a1.35 1.35 0 0 1-1.35 1.35H3.6a1.35 1.35 0 0 1-1.35-1.35V3.6c0-.746.604-1.35 1.35-1.35h16.8c.746 0 1.35.604 1.35 1.35z" clip-rule="evenodd"/><path fill="currentColor" stroke="currentColor" stroke-linecap="round" stroke-linejoin="round" d="M5.5 6a.5.5 0 1 0 0-1 .5.5 0 0 0 0 1M5.5 12.5a.5.5 0 1 0 0-1 .5.5 0 0 0 0 1M5.5 19a.5.5 0 1 0 0-1 .5.5 0 0 0 0 1M12 6a.5.5 0 1 0 0-1 .5.5 0 0 0 0 1M12 12.5a.5.5 0 1 0 0-1 .5.5 0 0 0 0 1M12 19a.5.5 0 1 0 0-1 .5.5 0 0 0 0 1M18.5 6a.5.5 0 1 0 0-1 .5.5 0 0 0 0 1M18.5 12.5a.5.5 0 1 0 0-1 .5.5 0 0 0 0 1M18.5 19a.5.5 0 1 0 0-1 .5.5 0 0 0 0 1"/></svg>