<svg xmlns="http://www.w3.org/2000/svg" width="24" height="24" fill="none" viewBox="0 0 24 24" stroke-width="2"><g fill="currentColor" fill-rule="evenodd" clip-path="url(#a)" clip-rule="evenodd"><path d="M17.47 9.47a.75.75 0 0 1 1.06 0L20 10.94l1.47-1.47a.75.75 0 0 1 1.06 1.06L21.061 12l1.47 1.47a.75.75 0 0 1-1.061 1.06L20 13.06l-1.47 1.47a.75.75 0 0 1-1.06-1.06L18.94 12l-1.47-1.47a.75.75 0 0 1 0-1.06M13.037 3.396c1.163-.767 2.713.068 2.713 1.461v14.286c0 1.394-1.55 2.228-2.713 1.461l-6-3.955a.25.25 0 0 0-.137-.042H4a2.75 2.75 0 0 1-2.75-2.75v-3.714A2.75 2.75 0 0 1 4 7.393h2.9a.25.25 0 0 0 .138-.041z"/></g><defs><clipPath id="a"><path fill="currentColor" d="M0 0h24v24H0z"/></clipPath></defs></svg>