<svg xmlns="http://www.w3.org/2000/svg" width="24" height="24" fill="none" viewBox="0 0 24 24" stroke-width="2"><path stroke="currentColor" stroke-linecap="round" stroke-linejoin="round" d="M17 7h.01M3 12c0-2.514 0-3.77.353-4.78A6.3 6.3 0 0 1 7.22 3.353C8.23 3 9.486 3 12 3c2.515 0 3.771 0 4.782.354a6.3 6.3 0 0 1 3.865 3.865C21 8.23 21 9.486 21 12s0 3.77-.354 4.78a6.3 6.3 0 0 1-3.865 3.866C15.77 21 14.514 21 12 21s-3.77 0-4.78-.354a6.3 6.3 0 0 1-3.867-3.865C3 15.77 3 14.514 3 12m12.777-.56a3.819 3.819 0 1 1-7.554 1.12 3.819 3.819 0 0 1 7.554-1.12"/></svg>