<svg xmlns="http://www.w3.org/2000/svg" width="24" height="24" fill="none" viewBox="0 0 24 24" stroke-width="2"><path stroke="currentColor" stroke-linecap="round" stroke-linejoin="round" d="M17 17v-3.5a2.5 2.5 0 0 0-5 0m0 0V17m0-3.5v-3m-4 0V17M8 7v.01M11 21h2c2.8 0 4.2 0 5.27-.545a5 5 0 0 0 2.185-2.185C21 17.2 21 15.8 21 13v-2c0-2.8 0-4.2-.545-5.27a5 5 0 0 0-2.185-2.185C17.2 3 15.8 3 13 3h-2c-2.8 0-4.2 0-5.27.545A5 5 0 0 0 3.545 5.73C3 6.8 3 8.2 3 11v2c0 2.8 0 4.2.545 5.27a5 5 0 0 0 2.185 2.185C6.8 21 8.2 21 11 21"/></svg>