<svg xmlns="http://www.w3.org/2000/svg" width="24" height="24" fill="none" viewBox="0 0 24 24" stroke-width="2"><path stroke="currentColor" stroke-linecap="round" stroke-linejoin="round" d="M12 19h.01m-.61 3h1.2c2.24 0 3.36 0 4.216-.436a4 4 0 0 0 1.748-1.748C19 18.96 19 17.84 19 15.6V8.4c0-2.24 0-3.36-.436-4.216a4 4 0 0 0-1.748-1.748C15.96 2 14.84 2 12.6 2h-1.2c-2.24 0-3.36 0-4.216.436a4 4 0 0 0-1.748 1.748C5 5.04 5 6.16 5 8.4v7.2c0 2.24 0 3.36.436 4.216a4 4 0 0 0 1.748 1.748C8.04 22 9.16 22 11.4 22"/></svg>