<svg xmlns="http://www.w3.org/2000/svg" width="24" height="24" fill="none" viewBox="0 0 24 24" stroke-width="2"><path stroke="currentColor" stroke-linecap="round" stroke-linejoin="round" d="m20.916 4.674-1.85 14.8a.6.6 0 0 1-.596.526H5.53a.6.6 0 0 1-.596-.526l-1.85-14.8A.6.6 0 0 1 3.68 4h16.64a.6.6 0 0 1 .596.674"/><path stroke="currentColor" stroke-linecap="round" stroke-linejoin="round" d="m16.75 7.75-.937 7.97a.6.6 0 0 1-.596.53H8.784a.6.6 0 0 1-.596-.53l-.859-7.3a.6.6 0 0 1 .596-.67zm0 0h3.75"/></svg>