<svg xmlns="http://www.w3.org/2000/svg" width="24" height="24" fill="none" viewBox="0 0 24 24" stroke-width="2"><path stroke="currentColor" stroke-linecap="round" stroke-linejoin="round" d="M10 21H5a2 2 0 0 1-2-2v-9h18m-6-6V2m0 2v2m0-2h-4.5M3 10V6a2 2 0 0 1 2-2h2M7 2v4M21 10V6a2 2 0 0 0-2-2h-.5"/><path stroke="currentColor" stroke-linecap="round" stroke-linejoin="round" d="M21.667 16.667C21.048 15.097 19.635 14 17.99 14c-1.759 0-3.253 1.255-3.794 3"/><path stroke="currentColor" stroke-linecap="round" stroke-linejoin="round" d="M19.995 16.772H21.4a.6.6 0 0 0 .6-.6V14.55M14.334 19.333C14.953 20.903 16.366 22 18.01 22c1.759 0 3.253-1.255 3.794-3"/><path stroke="currentColor" stroke-linecap="round" stroke-linejoin="round" d="M16.005 19.228H14.6a.6.6 0 0 0-.6.6v1.622"/></svg>