<svg xmlns="http://www.w3.org/2000/svg" width="24" height="24" fill="none" viewBox="0 0 24 24" stroke-width="2"><path stroke="currentColor" stroke-linecap="round" stroke-linejoin="round" d="M5 16v-2M12 21v-2M19 13v-2M5 8V6M12 13v-2M19 5V3M7 8.6v4.8a.6.6 0 0 1-.6.6H3.6a.6.6 0 0 1-.6-.6V8.6a.6.6 0 0 1 .6-.6h2.8a.6.6 0 0 1 .6.6M14 13.6v4.8a.6.6 0 0 1-.6.6h-2.8a.6.6 0 0 1-.6-.6v-4.8a.6.6 0 0 1 .6-.6h2.8a.6.6 0 0 1 .6.6M21 5.6v4.8a.6.6 0 0 1-.6.6h-2.8a.6.6 0 0 1-.6-.6V5.6a.6.6 0 0 1 .6-.6h2.8a.6.6 0 0 1 .6.6"/></svg>