<svg xmlns="http://www.w3.org/2000/svg" width="24" height="24" fill="none" viewBox="0 0 24 24" stroke-width="2"><path stroke="currentColor" stroke-linecap="round" stroke-linejoin="round" d="M19 2v4M19 10.01l.01-.011M16 14v1.4a.6.6 0 0 1-.6.6H8.6a.6.6 0 0 1-.6-.6V8.6a.6.6 0 0 1 .6-.6H14"/><path stroke="currentColor" stroke-linecap="round" stroke-linejoin="round" d="M20 14v5.4a.6.6 0 0 1-.6.6H4.6a.6.6 0 0 1-.6-.6V4.6a.6.6 0 0 1 .6-.6H14M20 17h2M17 20v2M12 20v2M7 20v2M4 17H2M4 12H2M4 7H2M12 4V2M7 4V2"/></svg>