<svg xmlns="http://www.w3.org/2000/svg" width="24" height="24" fill="none" viewBox="0 0 24 24" stroke-width="2"><path stroke="currentColor" stroke-linecap="round" stroke-linejoin="round" d="M6 3H3v3M18 3h3v3M6 21H3v-3M18 21h3v-3M12.515 17.691l4-2.4a1 1 0 0 0 .485-.857v-3.868a1 1 0 0 0-.485-.857l-4-2.4a1 1 0 0 0-1.03 0l-4 2.4a1 1 0 0 0-.485.857v3.868a1 1 0 0 0 .486.857l4 2.4a1 1 0 0 0 1.028 0"/><path stroke="currentColor" stroke-linecap="round" stroke-linejoin="round" d="M7.5 10.5 12 13m0 0s3.764-2.05 4.5-2.5M12 13v4.5"/></svg>