<svg xmlns="http://www.w3.org/2000/svg" width="24" height="24" fill="none" viewBox="0 0 24 24" stroke-width="2"><path stroke="currentColor" stroke-linecap="round" stroke-linejoin="round" d="m12 7.01.01-.011M16 9.01l.01-.011M8 9.01l.01-.011M18 13.01l.01-.011M6 13.01l.01-.011M17 17.01l.01-.011M7 17.01l.01-.011M12 17l1-6M8.5 20.001H4A9.96 9.96 0 0 1 2 14C2 8.477 6.477 4 12 4s10 4.477 10 10c0 2.252-.744 4.33-2 6.001L15.5 20"/><path stroke="currentColor" stroke-linecap="round" stroke-linejoin="round" d="M12 23a3 3 0 1 0 0-6 3 3 0 0 0 0 6"/></svg>