<svg xmlns="http://www.w3.org/2000/svg" width="24" height="24" fill="none" viewBox="0 0 24 24" stroke-width="2"><path fill="currentColor" stroke="currentColor" stroke-linecap="round" stroke-linejoin="round" d="M5.5 5a.5.5 0 1 1 0-1 .5.5 0 0 1 0 1M5.5 10a.5.5 0 1 1 0-1 .5.5 0 0 1 0 1M5.5 15a.5.5 0 1 1 0-1 .5.5 0 0 1 0 1M12 5a.5.5 0 1 1 0-1 .5.5 0 0 1 0 1M12 10a.5.5 0 1 1 0-1 .5.5 0 0 1 0 1M12 15a.5.5 0 1 1 0-1 .5.5 0 0 1 0 1M12 20a.5.5 0 1 1 0-1 .5.5 0 0 1 0 1M18.5 5a.5.5 0 1 1 0-1 .5.5 0 0 1 0 1M18.5 10a.5.5 0 1 1 0-1 .5.5 0 0 1 0 1M18.5 15a.5.5 0 1 1 0-1 .5.5 0 0 1 0 1"/></svg>