<svg xmlns="http://www.w3.org/2000/svg" width="24" height="24" fill="none" viewBox="0 0 24 24" stroke-width="2"><path stroke="currentColor" stroke-linecap="round" stroke-linejoin="round" d="m14 15 1.5 1.5M8.5 12.5a3 3 0 1 0 6 0 3 3 0 0 0-6 0"/><path stroke="currentColor" stroke-linecap="round" stroke-linejoin="round" d="M4 21.4V2.6a.6.6 0 0 1 .6-.6h11.652a.6.6 0 0 1 .424.176l3.148 3.148A.6.6 0 0 1 20 5.75V21.4a.6.6 0 0 1-.6.6H4.6a.6.6 0 0 1-.6-.6"/><path stroke="currentColor" stroke-linecap="round" stroke-linejoin="round" d="M16 2v3.4a.6.6 0 0 0 .6.6H20"/></svg>