<svg xmlns="http://www.w3.org/2000/svg" width="24" height="24" fill="none" viewBox="0 0 24 24" stroke-width="2"><path stroke="currentColor" d="M3 16V8a5 5 0 0 1 5-5h8a5 5 0 0 1 5 5v8a5 5 0 0 1-5 5H8a5 5 0 0 1-5-5Z"/><path stroke="currentColor" stroke-linecap="round" stroke-linejoin="round" d="M16.5 14.5s-1.5 2-4.5 2-4.5-2-4.5-2"/><path fill="currentColor" stroke="currentColor" stroke-linecap="round" stroke-linejoin="round" d="M8.5 10a.5.5 0 1 1 0-1 .5.5 0 0 1 0 1M15.5 10a.5.5 0 1 1 0-1 .5.5 0 0 1 0 1"/></svg>