<svg xmlns="http://www.w3.org/2000/svg" width="24" height="24" fill="none" viewBox="0 0 24 24" stroke-width="2"><path stroke="currentColor" stroke-linecap="round" stroke-linejoin="round" d="M12 22C6.477 22 2 17.523 2 12S6.477 2 12 2s10 4.477 10 10-4.477 10-10 10"/><path stroke="currentColor" stroke-linecap="round" stroke-linejoin="round" d="M12 22c-2.21 0-4-4.477-4-10S9.79 2 12 2s4 4.477 4 10-1.79 10-4 10"/><path stroke="currentColor" stroke-linecap="round" stroke-linejoin="round" d="M9 21c-3-1-4-5.389-4-8.5s1.5-7 5-9.5M15 3c3 1 4 5.389 4 8.5s-1.5 7-5 9.5"/></svg>