<svg xmlns="http://www.w3.org/2000/svg" width="24" height="24" fill="none" viewBox="0 0 24 24" stroke-width="2"><path stroke="currentColor" stroke-linecap="round" stroke-linejoin="round" d="M10 21.4v-7.006a.6.6 0 0 1 .6-.6h1.173a.6.6 0 0 0 .504-.275l1.446-2.244a.6.6 0 0 1 .504-.275h3.546a.6.6 0 0 1 .504.275l1.446 2.244a.6.6 0 0 0 .504.275H21.4a.6.6 0 0 1 .6.6V21.4a.6.6 0 0 1-.6.6H10.6a.6.6 0 0 1-.6-.6"/><path stroke="currentColor" stroke-linecap="round" stroke-linejoin="round" d="M16 19a2 2 0 1 0 0-4 2 2 0 0 0 0 4M3 18v3h2.5M3 9.5v5M3 6V3h3M9.5 3h5M18 3h3v2.5M21 10V8.5"/></svg>