<svg xmlns="http://www.w3.org/2000/svg" width="24" height="24" fill="none" viewBox="0 0 24 24" stroke-width="2"><path stroke="currentColor" d="M3 21V3.6a.6.6 0 0 1 .6-.6H21"/><path stroke="currentColor" stroke-linecap="round" stroke-linejoin="round" d="M17 21h3.4a.6.6 0 0 0 .6-.6V17M21 7v2M21 12v2M7 21h2M12 21h2"/><path fill="currentColor" stroke="currentColor" stroke-linecap="round" stroke-linejoin="round" d="M3 4a1 1 0 1 0 0-2 1 1 0 0 0 0 2M3 22a1 1 0 1 0 0-2 1 1 0 0 0 0 2M21 4a1 1 0 1 0 0-2 1 1 0 0 0 0 2"/></svg>