<svg xmlns="http://www.w3.org/2000/svg" width="24" height="24" fill="none" viewBox="0 0 24 24" stroke-width="2"><path stroke="currentColor" stroke-linecap="round" stroke-linejoin="round" d="M22 12c0-5.523-4.477-10-10-10S2 6.477 2 12s4.477 10 10 10"/><path stroke="currentColor" stroke-linecap="round" stroke-linejoin="round" d="M13 2.05S16 6 16 12M11 21.95S8 18 8 12s3-9.95 3-9.95M2.63 15.5H12M2.63 8.5h18.74M19 17.5V19h1.5"/><path stroke="currentColor" stroke-linecap="round" stroke-linejoin="round" d="M19 23a4 4 0 1 0 0-8 4 4 0 0 0 0 8"/></svg>