<svg xmlns="http://www.w3.org/2000/svg" width="24" height="24" fill="none" viewBox="0 0 24 24" stroke-width="2"><path stroke="currentColor" stroke-linecap="round" stroke-linejoin="round" d="M18.4 4s-1.6 3.75-1.6 6.857c0 .995.34 1.827.8 2.656.528.954 1.214 1.903 1.717 3.09.399.943.683 2.034.683 3.397M5.6 4s1.6 3.75 1.6 6.857c0 .995-.34 1.827-.8 2.656-.528.954-1.214 1.903-1.717 3.09A8.5 8.5 0 0 0 4 20M6.4 13.513h11.2"/><path stroke="currentColor" stroke-linecap="round" stroke-linejoin="round" d="M4.683 16.604S10.4 17.714 12 20c1.6-2.286 7.317-3.396 7.317-3.396"/></svg>