<svg xmlns="http://www.w3.org/2000/svg" width="24" height="24" fill="none" viewBox="0 0 24 24" stroke-width="2"><path stroke="currentColor" stroke-linecap="round" stroke-linejoin="round" d="M21 4v16a2 2 0 0 1-2 2H5a2 2 0 0 1-2-2V4a2 2 0 0 1 2-2h14a2 2 0 0 1 2 2M18 5.01l.01-.011"/><path stroke="currentColor" stroke-linecap="round" stroke-linejoin="round" d="M12 19a6 6 0 1 0 0-12 6 6 0 0 0 0 12"/><path stroke="currentColor" stroke-linecap="round" stroke-linejoin="round" d="M12 16a3 3 0 0 1-3-3"/></svg>