<svg xmlns="http://www.w3.org/2000/svg" width="24" height="24" fill="none" viewBox="0 0 24 24" stroke-width="2"><path stroke="currentColor" stroke-linecap="round" d="M4 6V3.6a.6.6 0 0 1 .6-.6h14.8a.6.6 0 0 1 .6.6V6M4 18v2.4a.6.6 0 0 0 .6.6h14.8a.6.6 0 0 0 .6-.6V18"/><path stroke="currentColor" stroke-linecap="round" stroke-linejoin="round" d="M13.5 15V9h2.4a.6.6 0 0 1 .6.6v.9A1.5 1.5 0 0 1 15 12v0"/><path stroke="currentColor" stroke-linecap="round" stroke-linejoin="round" d="M13.5 15h2.4a.6.6 0 0 0 .6-.6v-.9A1.5 1.5 0 0 0 15 12v0h-1.5M19.5 15v-3m0 0V9h3v3zM1.5 9v6L3 12l1.5 3V9M10.5 9h-3v6h3M7.5 12h2"/></svg>