<svg xmlns="http://www.w3.org/2000/svg" width="24" height="24" fill="none" viewBox="0 0 24 24" stroke-width="2"><path stroke="currentColor" stroke-linecap="round" stroke-linejoin="round" d="M16 16.472V20a2 2 0 0 1-2 2h-4a2 2 0 0 1-2-2v-3.528M8 7.528V4a2 2 0 0 1 2-2h4a2 2 0 0 1 2 2v3.528"/><path stroke="currentColor" stroke-linecap="round" stroke-linejoin="round" d="M18 12a6 6 0 1 0-12 0 6 6 0 0 0 12 0"/><path stroke="currentColor" stroke-linecap="round" stroke-linejoin="round" d="M14 12h-2v-2"/></svg>