<svg xmlns="http://www.w3.org/2000/svg" width="24" height="24" fill="none" viewBox="0 0 24 24" stroke-width="2"><path fill="currentColor" d="M18.209 9.706a1 1 0 0 0-1.418-1.412l-5.77 5.795-3.319-3.273a1 1 0 0 0-1.404 1.424l4.028 3.972a1 1 0 0 0 1.41-.006z"/><path fill="currentColor" fill-rule="evenodd" d="M4.5 2A2.5 2.5 0 0 0 2 4.5v15A2.5 2.5 0 0 0 4.5 22h15a2.5 2.5 0 0 0 2.5-2.5v-15A2.5 2.5 0 0 0 19.5 2zM4 4.5a.5.5 0 0 1 .5-.5h15a.5.5 0 0 1 .5.5v15a.5.5 0 0 1-.5.5h-15a.5.5 0 0 1-.5-.5z" clip-rule="evenodd"/></svg>