<svg xmlns="http://www.w3.org/2000/svg" width="24" height="24" fill="none" viewBox="0 0 24 24" stroke-width="2"><path fill="currentColor" fill-rule="evenodd" d="M17.189 8.076a1 1 0 0 0-1.265-1.265l-6.36 2.12a1 1 0 0 0-.633.633l-2.12 6.36a1 1 0 0 0 1.265 1.265l6.36-2.12a1 1 0 0 0 .633-.633zM9.34 14.66l1.33-3.988 3.988-1.33-1.33 3.989z" clip-rule="evenodd"/><path fill="currentColor" fill-rule="evenodd" d="M12 1C5.925 1 1 5.925 1 12s4.925 11 11 11 11-4.925 11-11S18.075 1 12 1M3 12a9 9 0 1 1 18 0 9 9 0 0 1-18 0" clip-rule="evenodd"/></svg>