<svg xmlns="http://www.w3.org/2000/svg" width="24" height="24" fill="none" viewBox="0 0 24 24" stroke-width="2"><path fill="currentColor" d="M7.5 6a1.5 1.5 0 1 1-3 0 1.5 1.5 0 0 1 3 0"/><path fill="currentColor" fill-rule="evenodd" d="M4 1a3 3 0 0 0-3 3v4a3 3 0 0 0 3 3h16a3 3 0 0 0 3-3V4a3 3 0 0 0-3-3zM3 4a1 1 0 0 1 1-1h16a1 1 0 0 1 1 1v4a1 1 0 0 1-1 1H4a1 1 0 0 1-1-1z" clip-rule="evenodd"/><path fill="currentColor" d="M6 19.5a1.5 1.5 0 1 0 0-3 1.5 1.5 0 0 0 0 3"/><path fill="currentColor" fill-rule="evenodd" d="M4 13a3 3 0 0 0-3 3v4a3 3 0 0 0 3 3h16a3 3 0 0 0 3-3v-4a3 3 0 0 0-3-3zm-1 3a1 1 0 0 1 1-1h16a1 1 0 0 1 1 1v4a1 1 0 0 1-1 1H4a1 1 0 0 1-1-1z" clip-rule="evenodd"/></svg>