<svg xmlns="http://www.w3.org/2000/svg" width="24" height="24" fill="none" viewBox="0 0 24 24" stroke-width="2"><g clip-path="url(#a)"><path fill="currentColor" fill-rule="evenodd" d="M2.121 15.536a5 5 0 0 1 0-7.071L8.464 2.12a5 5 0 0 1 7.072 0l6.343 6.343a5 5 0 0 1 0 7.072l-6.343 6.343a5 5 0 0 1-7.071 0zm1.415-5.657a3 3 0 0 0 0 4.242l6.343 6.344a3 3 0 0 0 4.242 0l6.344-6.344a3 3 0 0 0 0-4.242L14.12 3.536a3 3 0 0 0-4.242 0z" clip-rule="evenodd"/></g><defs><clipPath id="a"><path fill="currentColor" d="M0 0h24v24H0z"/></clipPath></defs></svg>