<svg xmlns="http://www.w3.org/2000/svg" width="24" height="24" fill="none" viewBox="0 0 24 24" stroke-width="2"><path fill="currentColor" d="M8.5 10a1.5 1.5 0 1 0 0-3 1.5 1.5 0 0 0 0 3"/><path fill="currentColor" fill-rule="evenodd" d="M4.45 1.95a2.5 2.5 0 0 0-2.5 2.5v7.57a3 3 0 0 0 .878 2.122l7.9 7.9a4 4 0 0 0 5.657 0l5.657-5.657a4 4 0 0 0 0-5.657l-7.9-7.9a3 3 0 0 0-2.121-.878zm-.5 2.5a.5.5 0 0 1 .5-.5h7.57a1 1 0 0 1 .708.293l7.9 7.9a2 2 0 0 1 0 2.828l-5.657 5.657a2 2 0 0 1-2.829 0l-7.9-7.9a1 1 0 0 1-.292-.707z" clip-rule="evenodd"/></svg>