<svg xmlns="http://www.w3.org/2000/svg" width="24" height="24" fill="none" viewBox="0 0 24 24" stroke-width="2"><path fill="currentColor" d="M7.757 7.757a1 1 0 0 1 1.414 0L12 10.586l2.828-2.829a1 1 0 1 1 1.415 1.415L13.414 12l2.828 2.828a1 1 0 1 1-1.414 1.415L12 13.414 9.17 16.243a1 1 0 1 1-1.414-1.415L10.586 12 7.757 9.172a1 1 0 0 1 0-1.415"/><path fill="currentColor" fill-rule="evenodd" d="M1 12C1 5.925 5.925 1 12 1s11 4.925 11 11-4.925 11-11 11S1 18.075 1 12m11-9a9 9 0 1 0 0 18 9 9 0 0 0 0-18" clip-rule="evenodd"/></svg>