<svg xmlns="http://www.w3.org/2000/svg" viewBox="0 0 24 24" fill="currentColor" stroke-width="2"><path d="M12.09 21.925a9.85 9.85 0 0 1-3.838-.747 9.67 9.67 0 0 1-5.247-5.248A10 10 0 0 1 2.244 12a10.4 10.4 0 0 1 .695-3.8 9.6 9.6 0 0 1 2-3.169A9.3 9.3 0 0 1 8.1 2.862a10.6 10.6 0 0 1 4.175-.787 10.5 10.5 0 0 1 4.334.827 8.4 8.4 0 0 1 3.031 2.217 8.6 8.6 0 0 1 1.707 3.1 9.3 9.3 0 0 1 .377 3.487 5.8 5.8 0 0 1-1.3 3.6 3.6 3.6 0 0 1-2.724 1.167 3.63 3.63 0 0 1-2.162-.609 2.82 2.82 0 0 1-1.119-1.694l.5.106a2.58 2.58 0 0 1-1.3 1.3 4.4 4.4 0 0 1-1.873.424 3.7 3.7 0 0 1-1.866-.46 3.2 3.2 0 0 1-1.237-1.271A3.84 3.84 0 0 1 8.2 12.4a3.9 3.9 0 0 1 .456-1.926 3.2 3.2 0 0 1 1.263-1.26 3.8 3.8 0 0 1 1.853-.443 4.7 4.7 0 0 1 1.767.364 2.62 2.62 0 0 1 1.383 1.3l-.5.5V9.461a.4.4 0 0 1 .4-.4h.232a.4.4 0 0 1 .4.4v3.518a2.72 2.72 0 0 0 .529 1.674 2.17 2.17 0 0 0 1.853.708 2.3 2.3 0 0 0 1.323-.41 2.94 2.94 0 0 0 .967-1.178 5 5 0 0 0 .437-1.852 9.4 9.4 0 0 0-.417-3.574A7.3 7.3 0 0 0 18.5 5.588a7.4 7.4 0 0 0-2.679-1.78 9.6 9.6 0 0 0-3.547-.622 9 9 0 0 0-3.758.741 8.25 8.25 0 0 0-2.773 2 8.8 8.8 0 0 0-1.72 2.838 9.3 9.3 0 0 0-.589 3.262 8.6 8.6 0 0 0 .682 3.408A9 9 0 0 0 6 18.24a8.7 8.7 0 0 0 2.785 1.892 8.5 8.5 0 0 0 3.389.682 9.9 9.9 0 0 0 2.679-.378 8.5 8.5 0 0 0 2-.831.4.4 0 0 1 .553.158l.1.192a.4.4 0 0 1-.141.526 9.8 9.8 0 0 1-2.391 1.04 10.5 10.5 0 0 1-2.884.404m-.29-7.066a2.47 2.47 0 0 0 1.786-.649 2.43 2.43 0 0 0 .675-1.839 2.41 2.41 0 0 0-.7-1.886 2.53 2.53 0 0 0-1.761-.629 2.48 2.48 0 0 0-1.839.649 2.52 2.52 0 0 0-.65 1.866 2.4 2.4 0 0 0 .682 1.865 2.57 2.57 0 0 0 1.807.623"/></svg>