<svg xmlns="http://www.w3.org/2000/svg" viewBox="0 0 24 24" fill="currentColor" stroke-width="2"><path d="M8.066 4.065H3.648a1.73 1.73 0 0 0-.963.189 1.37 1.37 0 0 0-.619 1.226v4.585a.5.5 0 0 0 1 0v-4.28a1.8 1.8 0 0 1 .014-.518c.077-.236.319-.2.514-.2h4.472a.5.5 0 0 0 0-1ZM2.063 13.937v4.418a1.73 1.73 0 0 0 .189.963 1.37 1.37 0 0 0 1.227.619h4.584a.5.5 0 0 0 0-1h-4.28a1.8 1.8 0 0 1-.518-.014c-.236-.077-.2-.319-.2-.514v-4.472a.5.5 0 0 0-1 0ZM15.934 19.935h4.418a1.73 1.73 0 0 0 .963-.189 1.37 1.37 0 0 0 .619-1.226v-4.585a.5.5 0 0 0-1 0v4.28a1.8 1.8 0 0 1-.014.518c-.077.236-.319.2-.514.2h-4.472a.5.5 0 0 0 0 1ZM21.937 10.063V5.645a1.73 1.73 0 0 0-.189-.963 1.37 1.37 0 0 0-1.227-.619h-4.584a.5.5 0 0 0 0 1h4.28a1.8 1.8 0 0 1 .518.014c.236.077.2.319.2.514v4.472a.5.5 0 0 0 1 0Z"/><rect width="1" height="8.709" x="10.999" y="7.643" rx=".5"/><rect width="1" height="8.709" x="14.249" y="7.643" rx=".5"/><rect width="1" height="8.709" x="16.499" y="7.643" rx=".5"/><rect width="1" height="8.709" x="6.499" y="7.643" rx=".5"/><rect width="1.5" height="8.709" x="8.499" y="7.643" rx=".75"/></svg>