<svg xmlns="http://www.w3.org/2000/svg" viewBox="0 0 24 24" fill="currentColor" stroke-width="2"><g data-name="Beer Mug Full"><path d="M18.356 9.63h-.97V7.99a2.94 2.94 0 0 0 .5-1.65 2 2 0 0 0-.01-.23 2.9 2.9 0 0 0-1.64-2.38 2.96 2.96 0 0 0-2.4-.07 3.278 3.278 0 0 0-5.62 0 2.9 2.9 0 0 0-1.68-.17 2.87 2.87 0 0 0-2.16 1.75 2.95 2.95 0 0 0 .3 2.77v11.42a2.5 2.5 0 0 0 2.5 2.5h7.71a2.5 2.5 0 0 0 2.5-2.5v-.99l.91-.36a2.43 2.43 0 0 0 1.54-2.27V11.1a1.48 1.48 0 0 0-1.48-1.47m-1.97 9.8a1.5 1.5 0 0 1-1.5 1.5h-7.71a1.5 1.5 0 0 1-1.5-1.5v-8.09a2.86 2.86 0 0 0 1.93.74c.13 0 .25-.01.37-.02v6.34a.5.5 0 0 0 .5.5.5.5 0 0 0 .5-.5v-6.58a.2.2 0 0 0-.01-.07 2.94 2.94 0 0 0 1.57-2.46h4.42a2.86 2.86 0 0 0 1.43-.38Zm-.01-11.77a1.95 1.95 0 0 1-1.42.63h-4.61a.8.8 0 0 0-.79.61 1 1 0 0 0-.02.2 1.98 1.98 0 0 1-1.05 1.78 1.934 1.934 0 0 1-2.8-1.72 1.8 1.8 0 0 1 .17-.77.6.6 0 0 0-.13-.68 1.94 1.94 0 0 1-.41-2.11 1.87 1.87 0 0 1 1.4-1.13 2.5 2.5 0 0 1 .38-.03 1.9 1.9 0 0 1 .86.2.77.77 0 0 0 .59.06A.8.8 0 0 0 9 4.32a2.273 2.273 0 0 1 4.06 0 .75.75 0 0 0 .44.38.8.8 0 0 0 .59-.05 1.917 1.917 0 0 1 2.79 1.54 1.89 1.89 0 0 1-.504 1.47m2.46 8.15a1.43 1.43 0 0 1-.92 1.34l-.52.22v-6.74h.96a.48.48 0 0 1 .48.47Z"/><path d="M13.577 18.9a.5.5 0 0 1-.5-.5v-6.58a.5.5 0 0 1 1 0v6.58a.5.5 0 0 1-.5.5"/></g></svg>