<svg xmlns="http://www.w3.org/2000/svg" viewBox="0 0 24 24" fill="currentColor" stroke-width="2"><g data-name="Calendar Date"><path d="M18.435 4.955H16.5v-1.41a.5.5 0 0 0-1 0v1.41h-7v-1.41a.5.5 0 1 0-1 0v1.41H5.565a2.5 2.5 0 0 0-2.5 2.5v11a2.5 2.5 0 0 0 2.5 2.5h12.87a2.5 2.5 0 0 0 2.5-2.5v-11a2.5 2.5 0 0 0-2.5-2.5m1.5 13.5a1.5 1.5 0 0 1-1.5 1.5H5.565a1.5 1.5 0 0 1-1.5-1.5v-8.42h15.87Zm0-9.42H4.065v-1.58a1.5 1.5 0 0 1 1.5-1.5H7.5v.59a.5.5 0 0 0 1 0v-.59h7v.59a.5.5 0 0 0 1 0v-.59h1.94a1.5 1.5 0 0 1 1.5 1.5Z"/><path d="M11.492 17.173v-3.459a.075.075 0 0 0-.114-.064l-.638.392a.15.15 0 0 1-.229-.128v-.65a.3.3 0 0 1 .146-.258l.764-.457a.3.3 0 0 1 .154-.043h.625a.3.3 0 0 1 .3.3v4.367a.3.3 0 0 1-.3.3h-.409a.3.3 0 0 1-.299-.3"/></g></svg>