<svg xmlns="http://www.w3.org/2000/svg" viewBox="0 0 24 24" fill="currentColor" stroke-width="2"><g data-name="Circle Question"><path d="M11.411 12.459a1.55 1.55 0 0 1 .341-.6 2.6 2.6 0 0 1 .535-.417 2.2 2.2 0 0 0 .363-.286 1.2 1.2 0 0 0 .256-.363 1.1 1.1 0 0 0 .094-.452.92.92 0 0 0-.142-.517.94.94 0 0 0-.374-.338 1.1 1.1 0 0 0-.519-.119 1.2 1.2 0 0 0-.495.107.93.93 0 0 0-.389.335.9.9 0 0 0-.111.224.52.52 0 0 1-.483.359.506.506 0 0 1-.479-.675 1.7 1.7 0 0 1 .178-.349 1.8 1.8 0 0 1 .748-.634 2.4 2.4 0 0 1 1.031-.215 2.4 2.4 0 0 1 1.082.231 1.74 1.74 0 0 1 .721.641 1.77 1.77 0 0 1 .257.96 1.8 1.8 0 0 1-.118.678 1.7 1.7 0 0 1-.334.536 2.3 2.3 0 0 1-.52.417 2.3 2.3 0 0 0-.462.369 1.1 1.1 0 0 0-.256.455 2 2 0 0 0-.045.283.49.49 0 0 1-.483.429.484.484 0 0 1-.483-.531 3 3 0 0 1 .087-.528"/><circle cx="11.793" cy="14.891" r=".587"/><path d="M12 21.931A9.934 9.934 0 1 1 21.934 12 9.945 9.945 0 0 1 12 21.931m0-18.867A8.934 8.934 0 1 0 20.934 12 8.943 8.943 0 0 0 12 3.064"/></g></svg>