<svg xmlns="http://www.w3.org/2000/svg" viewBox="0 0 24 24" fill="currentColor" stroke-width="2"><g data-name="Circle List"><path d="M20.438 6.062h-9a.5.5 0 0 1 0-1h9a.5.5 0 0 1 0 1M20.438 12.5h-9a.5.5 0 0 1 0-1h9a.5.5 0 0 1 0 1M20.438 18.935h-9a.5.5 0 1 1 0-1h9a.5.5 0 0 1 0 1M5.562 8.062a2.5 2.5 0 1 1 2.5-2.5 2.5 2.5 0 0 1-2.5 2.5m0-4a1.5 1.5 0 1 0 1.5 1.5 1.5 1.5 0 0 0-1.5-1.5M5.562 14.5a2.5 2.5 0 1 1 2.5-2.5 2.5 2.5 0 0 1-2.5 2.5m0-4a1.5 1.5 0 1 0 1.5 1.5 1.5 1.5 0 0 0-1.5-1.5M5.562 20.938a2.5 2.5 0 1 1 2.5-2.5 2.5 2.5 0 0 1-2.5 2.5m0-4a1.5 1.5 0 1 0 1.5 1.5 1.5 1.5 0 0 0-1.5-1.5"/></g></svg>