<svg xmlns="http://www.w3.org/2000/svg" xml:space="preserve" viewBox="0 0 24 24" fill="currentColor" stroke-width="2"><path d="M0 0h24v24H0z"/><path d="M17.879 15.227c.26.565.387 1.202.343 1.873-.134 2.054-1.924 3.616-3.982 3.616H8.253c-3.251 0-6.04-2.506-6.193-5.752a6.043 6.043 0 0 1 7.475-6.161l.743-.43-.57-2.116-.001-.002c-.189-.715.471-1.359 1.162-1.171l2.137.571 1.089-1.894c.356-.628 1.277-.639 1.654-.011l.004.006 1.101 1.899 2.116-.57.002-.001a.958.958 0 0 1 1.172 1.171l-.001.002-.571 2.126 1.898 1.091.007.005a.957.957 0 0 1 0 1.647l-.006.004-1.899 1.101.571 2.116.001.002a.96.96 0 0 1-1.172 1.172l-.001-.001zm-7.118-5.978q.574.283 1.072.676a3.105 3.105 0 0 1 3.087-2.728 3.104 3.104 0 0 1 3.11 3.11 3.11 3.11 0 0 1-2.167 2.964c.393.167.754.396 1.068.676a1 1 0 0 1 .139.027l2.088.561-.56-2.075a.934.934 0 0 1 .441-1.075l1.865-1.083-1.857-1.068a.936.936 0 0 1-.449-1.079l.56-2.085-2.078.56-.008.002a.945.945 0 0 1-1.064-.444l-1.083-1.865-1.071 1.864-.007.011a.95.95 0 0 1-1.058.434l-.008-.002-2.088-.558.56 2.075.002.009a.97.97 0 0 1-.441 1.062zm2.209 1.854a6 6 0 0 1 .423.666 2.114 2.114 0 0 0 3.637-1.462c0-1.172-.946-2.11-2.11-2.11a2.107 2.107 0 0 0-1.95 2.906m3.387 3.676a2.86 2.86 0 0 0-2.625-.741l-.003.001a.59.59 0 0 1-.714-.454v-.002a5.03 5.03 0 0 0-4.919-3.952 5.043 5.043 0 0 0-5.037 5.286c.128 2.716 2.474 4.799 5.194 4.799h5.987c1.535 0 2.885-1.149 2.985-2.681a2.87 2.87 0 0 0-.868-2.256"/></svg>