<svg xmlns="http://www.w3.org/2000/svg" xml:space="preserve" viewBox="0 0 24 24" fill="currentColor" stroke-width="2"><path d="M0 0h24v24H0z"/><path d="M16.588 10.046q.322-.048.66-.048c2.7 0 4.871 2.278 4.692 5.016-.163 2.494-2.338 4.389-4.838 4.389H9.646c-3.982 0-7.402-3.069-7.588-7.047a7.4 7.4 0 0 1 7.395-7.758 7.39 7.39 0 0 1 7.135 5.448M3.057 12.309c.162 3.448 3.138 6.094 6.589 6.094h7.456c1.977 0 3.712-1.482 3.841-3.454a3.704 3.704 0 0 0-4.501-3.86l-.001.001a.61.61 0 0 1-.742-.471l-.001-.003a6.39 6.39 0 0 0-6.245-5.018 6.4 6.4 0 0 0-6.396 6.711"/></svg>