<svg xmlns="http://www.w3.org/2000/svg" xml:space="preserve" viewBox="0 0 24 24" fill="currentColor" stroke-width="2"><path d="M0 0h24v24H0z"/><path d="M8.446 20.343a.5.5 0 0 1 1 0v1.018a.5.5 0 0 1-1 0zm9.159-3.556a.5.5 0 0 1 1 0v1.018a.5.5 0 0 1-1 0zm-6.105 0a.5.5 0 0 1 1 0v1.018a.5.5 0 0 1-1 0zm3.052 3.556a.5.5 0 0 1 1 0v1.018a.5.5 0 0 1-1 0zm-9.159-3.556a.5.5 0 0 1 1 0v1.018a.5.5 0 0 1-1 0zM15.757 6.505q.224-.027.459-.028a3.877 3.877 0 0 1 3.867 4.135c-.135 2.055-1.925 3.616-3.984 3.616H10.11c-3.251 0-6.042-2.507-6.194-5.754a6.043 6.043 0 0 1 11.841-1.969M4.915 8.427c.127 2.717 2.475 4.801 5.195 4.801h5.989c1.536 0 2.885-1.149 2.986-2.682a2.877 2.877 0 0 0-2.869-3.069q-.325.002-.625.071l-.002.001a.59.59 0 0 1-.714-.455v-.002a5.044 5.044 0 0 0-9.96 1.335"/></svg>