<svg xmlns="http://www.w3.org/2000/svg" xml:space="preserve" viewBox="0 0 24 24" fill="currentColor" stroke-width="2"><path d="M0 0h24v24H0z"/><path d="M13.845 10.956q.224.466.368.971.235-.029.481-.029a3.97 3.97 0 0 1 3.959 4.232c-.138 2.104-1.971 3.703-4.079 3.703H8.421c-3.332 0-6.193-2.569-6.349-5.898a6.193 6.193 0 0 1 6.939-6.448q.32-.427.715-.82c3.325-3.336 8.732-3.336 12.067-.001a.5.5 0 1 1-.707.708c-2.944-2.945-7.717-2.945-10.652-.001a8 8 0 0 0-.327.348 6.1 6.1 0 0 1 1.411.645 6.07 6.07 0 0 1 8.525.05.5.5 0 1 1-.707.708 5.07 5.07 0 0 0-7.001-.155q.558.489.987 1.096a3.583 3.583 0 0 1 4.971.101.5.5 0 1 1-.707.708 2.584 2.584 0 0 0-3.741.082M3.071 13.888c.131 2.799 2.549 4.945 5.35 4.945h6.153c1.585 0 2.977-1.186 3.081-2.768a2.97 2.97 0 0 0-2.961-3.167 2.8 2.8 0 0 0-.651.075.59.59 0 0 1-.713-.46 5.194 5.194 0 0 0-10.259 1.375"/></svg>