<svg xmlns="http://www.w3.org/2000/svg" xml:space="preserve" viewBox="0 0 24 24" fill="currentColor" stroke-width="2"><path d="M0 0h24v24H0z"/><path d="M18.051 14.945c.442.675.679 1.497.622 2.376-.134 2.054-1.925 3.616-3.983 3.616H8.703c-3.251 0-6.04-2.506-6.193-5.752a6.043 6.043 0 0 1 7.261-6.209 6.31 6.31 0 0 1 3.975-5.871l.003-.001c.597-.232 1.146.382.914.945a5.3 5.3 0 0 0-.374 2.414c.164 2.237 1.788 4.193 3.971 4.732a5.3 5.3 0 0 0 2.361.057c.611-.136 1.083.537.778 1.045l-.005.009a6.32 6.32 0 0 1-3.343 2.639m-7.27-5.667a6.04 6.04 0 0 1 3.567 3.939q.223-.028.459-.028c.959 0 1.837.349 2.514.926a5.28 5.28 0 0 0 2.825-1.783 6.4 6.4 0 0 1-2.126-.167c-2.597-.641-4.533-2.965-4.729-5.628a6.3 6.3 0 0 1 .223-2.219 5.31 5.31 0 0 0-2.733 4.96m-7.272 5.86c.128 2.716 2.474 4.799 5.194 4.799h5.987c1.535 0 2.885-1.149 2.985-2.681a2.876 2.876 0 0 0-3.493-2.997l-.003.001a.59.59 0 0 1-.713-.454l-.001-.002a5.03 5.03 0 0 0-4.919-3.952 5.043 5.043 0 0 0-5.037 5.286"/></svg>