<svg xmlns="http://www.w3.org/2000/svg" viewBox="0 0 24 24" fill="currentColor" stroke-width="2"><path d="M20.278 4.757a1.64 1.64 0 0 0-1.03-1.04 12.248 12.248 0 0 0-15.53 15.53 1.64 1.64 0 0 0 1.04 1.03 12.3 12.3 0 0 0 3.95.66 12.262 12.262 0 0 0 11.57-16.18m-15.2 14.58a.73.73 0 0 1-.42-.42 11.4 11.4 0 0 1-.58-4.26l5.26 5.26a11.4 11.4 0 0 1-4.26-.58m11.56-2.71a11.18 11.18 0 0 1-6.03 3.14l-6.38-6.38a11.1 11.1 0 0 1 3.14-6.02 11.2 11.2 0 0 1 6.03-3.15l6.38 6.38a11.25 11.25 0 0 1-3.14 6.03m3.29-7.3-5.26-5.26c.21 0 .41-.01.62-.01a11.2 11.2 0 0 1 3.63.61.68.68 0 0 1 .42.41 11.5 11.5 0 0 1 .59 4.25"/><path d="M10.4 15.257a.5.5 0 0 0 .35.15.5.5 0 0 0 .36-.15.5.5 0 0 0 0-.7l-.48-.48 1.37-1.37.48.48a.52.52 0 0 0 .35.14.54.54 0 0 0 .36-.14.513.513 0 0 0 0-.71l-.48-.48 1.37-1.37.48.48a.5.5 0 0 0 .7-.71l-1.66-1.66a.5.5 0 0 0-.71 0 .5.5 0 0 0 0 .7l.49.49L12 11.3l-.48-.48a.495.495 0 1 0-.7.7l.48.48-1.37 1.38-.49-.49a.5.5 0 0 0-.7 0 .5.5 0 0 0 0 .71Z"/></svg>