<svg xmlns="http://www.w3.org/2000/svg" viewBox="0 0 24 24" fill="currentColor" stroke-width="2"><g data-name="Grid _2-H"><path d="M18.437 11H5.565a2.5 2.5 0 0 1-2.5-2.5V5.564a2.5 2.5 0 0 1 2.5-2.5h12.872a2.5 2.5 0 0 1 2.5 2.5V8.5a2.5 2.5 0 0 1-2.5 2.5M5.565 4.064a1.5 1.5 0 0 0-1.5 1.5V8.5a1.5 1.5 0 0 0 1.5 1.5h12.872a1.5 1.5 0 0 0 1.5-1.5V5.564a1.5 1.5 0 0 0-1.5-1.5ZM18.437 20.936H5.565a2.5 2.5 0 0 1-2.5-2.5V15.5a2.5 2.5 0 0 1 2.5-2.5h12.872a2.5 2.5 0 0 1 2.5 2.5v2.934a2.5 2.5 0 0 1-2.5 2.502M5.565 14a1.5 1.5 0 0 0-1.5 1.5v2.934a1.5 1.5 0 0 0 1.5 1.5h12.872a1.5 1.5 0 0 0 1.5-1.5V15.5a1.5 1.5 0 0 0-1.5-1.5Z"/></g></svg>