<svg xmlns="http://www.w3.org/2000/svg" viewBox="0 0 24 24" fill="currentColor" stroke-width="2"><path d="m19.1 9.349-9.74 9.74.01.01 9.74-9.74Z"/><path d="m20.276 9.119-.47-.47a3.157 3.157 0 0 0-.03-4.43 3.21 3.21 0 0 0-4.42-.03l-.48-.48a2.3 2.3 0 0 0-3.18 0l-7.98 7.98a2.263 2.263 0 0 0 0 3.18l.48.48a3.145 3.145 0 0 0 .03 4.42 3.1 3.1 0 0 0 2.23.92 3.13 3.13 0 0 0 2.2-.89l.47.47a2.245 2.245 0 0 0 3.18 0l7.97-7.97a2.245 2.245 0 0 0 0-3.18m-15.85 3.27 7.97-7.97a1.243 1.243 0 0 1 1.77 0l.47.47-9.736 9.74-.47-.47a1.25 1.25 0 0 1-.004-1.77m3.52 6.7a2.2 2.2 0 0 1-3.02-.03 2.15 2.15 0 0 1-.03-3.01l11.16-11.16a2.16 2.16 0 0 1 1.49-.6 2.155 2.155 0 0 1 1.55 3.65Zm11.63-7.49-7.98 7.97a1.275 1.275 0 0 1-1.76 0l-.47-.47-.01-.01 9.74-9.74.01.01.47.47a1.27 1.27 0 0 1 0 1.771Z"/><path d="M6.57 17.569a.5.5 0 0 1-.354-.854 4.5 4.5 0 0 1 1.357-.967 3.5 3.5 0 0 0 1.1-.778 3.5 3.5 0 0 0 .779-1.1 5.03 5.03 0 0 1 2.324-2.324 3.5 3.5 0 0 0 1.1-.78 3.5 3.5 0 0 0 .78-1.1 4.5 4.5 0 0 1 .97-1.359 4.5 4.5 0 0 1 1.359-.97 3.5 3.5 0 0 0 1.1-.78.5.5 0 1 1 .707.707 4.5 4.5 0 0 1-1.36.969 3.5 3.5 0 0 0-1.1.781 3.5 3.5 0 0 0-.781 1.1 4.5 4.5 0 0 1-.969 1.36 4.5 4.5 0 0 1-1.359.969 4.03 4.03 0 0 0-1.874 1.874 4.5 4.5 0 0 1-.967 1.357 4.5 4.5 0 0 1-1.358.968 3.5 3.5 0 0 0-1.1.777.5.5 0 0 1-.354.15"/></svg>