<svg xmlns="http://www.w3.org/2000/svg" viewBox="0 0 24 24" fill="currentColor" stroke-width="2"><path d="M6 20.924a2.17 2.17 0 0 1-1.545-.642l-.734-.733a2.207 2.207 0 0 1-.16-2.947 1.18 1.18 0 0 0 .272-1.117 9.1 9.1 0 0 1 2.372-9.277 9.1 9.1 0 0 1 9.277-2.371 1.15 1.15 0 0 0 1.062-.229l.055-.044a2.205 2.205 0 0 1 2.946.161l.734.733a2.207 2.207 0 0 1 .16 2.947 1.18 1.18 0 0 0-.272 1.116A9.11 9.11 0 0 1 17.8 17.8a9.11 9.11 0 0 1-9.282 2.37 1.14 1.14 0 0 0-1.062.229A2.32 2.32 0 0 1 6 20.924M12.812 4.4a8.43 8.43 0 0 0-5.9 2.519 8.1 8.1 0 0 0-2.133 8.246 2.15 2.15 0 0 1-.395 2.014 1.227 1.227 0 0 0 .044 1.667l.734.733a1.21 1.21 0 0 0 1.613.088 2.17 2.17 0 0 1 2.067-.438 8.1 8.1 0 0 0 8.246-2.133 8.1 8.1 0 0 0 2.133-8.246 2.14 2.14 0 0 1 .395-2.013 1.23 1.23 0 0 0-.044-1.668l-.734-.733a1.206 1.206 0 0 0-1.612-.089l-.052.042a2.15 2.15 0 0 1-2.016.4 7.2 7.2 0 0 0-2.346-.389"/><path d="M6.457 12.286a.5.5 0 0 1-.178-.032.5.5 0 0 1-.29-.646 9.84 9.84 0 0 1 5.338-5.5.5.5 0 1 1 .386.921 8.85 8.85 0 0 0-4.789 4.939.5.5 0 0 1-.467.318"/></svg>