<svg xmlns="http://www.w3.org/2000/svg" viewBox="0 0 24 24" fill="currentColor" stroke-width="2"><path d="M12 18.09A6.09 6.09 0 1 1 18.09 12 6.1 6.1 0 0 1 12 18.09m0-11.18A5.09 5.09 0 1 0 17.09 12 5.1 5.1 0 0 0 12 6.91M11.5 2.568v1.6a.5.5 0 1 0 1 0v-1.6a.5.5 0 1 0-1 0M12.5 21.432v-1.6a.5.5 0 0 0-1 0v1.6a.5.5 0 1 0 1 0M21.432 11.5h-1.6a.5.5 0 0 0 0 1h1.6a.5.5 0 1 0 0-1M2.568 12.5h1.6a.5.5 0 1 0 0-1h-1.6a.5.5 0 1 0 0 1M18.316 4.977l-.992.992-.141.141a.51.51 0 0 0-.146.353.5.5 0 0 0 .146.354.5.5 0 0 0 .354.146.52.52 0 0 0 .353-.146l.992-.992.141-.141a.52.52 0 0 0 .147-.354.5.5 0 0 0-.147-.353.5.5 0 0 0-.353-.147.52.52 0 0 0-.354.147M5.684 19.023l.992-.992.141-.141a.51.51 0 0 0 .146-.353.5.5 0 0 0-.146-.354.5.5 0 0 0-.354-.146.52.52 0 0 0-.353.146l-.992.992-.141.141a.52.52 0 0 0-.147.354.5.5 0 0 0 .147.353.5.5 0 0 0 .353.147.52.52 0 0 0 .354-.147M19.023 18.316l-.992-.992-.141-.141a.51.51 0 0 0-.353-.146.5.5 0 0 0-.354.146.5.5 0 0 0-.146.354.52.52 0 0 0 .146.353l.992.992.141.141a.52.52 0 0 0 .354.147.5.5 0 0 0 .353-.147.5.5 0 0 0 .147-.353.52.52 0 0 0-.147-.354M4.977 5.684l.992.992.141.141a.51.51 0 0 0 .353.146.5.5 0 0 0 .354-.146.5.5 0 0 0 .146-.354.52.52 0 0 0-.146-.353l-.992-.992-.141-.141a.52.52 0 0 0-.354-.147.5.5 0 0 0-.353.147.5.5 0 0 0-.147.353.52.52 0 0 0 .147.354"/></svg>