<svg xmlns="http://www.w3.org/2000/svg" viewBox="0 0 24 24" fill="currentColor" stroke-width="2"><g data-name="Passport 1"><path d="M16.5 21.936h-9a2.5 2.5 0 0 1-2.5-2.5V4.564a2.5 2.5 0 0 1 2.5-2.5h9a2.5 2.5 0 0 1 2.5 2.5v14.872a2.5 2.5 0 0 1-2.5 2.5m-9-18.872a1.5 1.5 0 0 0-1.5 1.5v14.872a1.5 1.5 0 0 0 1.5 1.5h9a1.5 1.5 0 0 0 1.5-1.5V4.564a1.5 1.5 0 0 0-1.5-1.5Z"/><path d="M12 12.563a3.5 3.5 0 1 1 3.5-3.5 3.5 3.5 0 0 1-3.5 3.5m0-6a2.5 2.5 0 1 0 2.5 2.5 2.5 2.5 0 0 0-2.5-2.5M15 18.438H9a.5.5 0 0 1 0-1h6a.5.5 0 1 1 0 1"/></g></svg>