<svg xmlns="http://www.w3.org/2000/svg" viewBox="0 0 24 24" fill="currentColor" stroke-width="2"><path d="M12 21.934A9.934 9.934 0 1 1 21.933 12 9.945 9.945 0 0 1 12 21.934m0-18.868A8.934 8.934 0 1 0 20.933 12 8.944 8.944 0 0 0 12 3.066"/><path d="M9 10.258a1.5 1.5 0 1 1 1.061-.439A1.5 1.5 0 0 1 9 10.258m0-2a.5.5 0 1 0 .353.146A.5.5 0 0 0 9 8.259ZM7.758 16.743a.5.5 0 0 1-.358-.853l8.489-8.49a.5.5 0 0 1 .707.707L8.111 16.6a.5.5 0 0 1-.353.143M15 16.742a1.5 1.5 0 1 1 1.061-.438 1.5 1.5 0 0 1-1.061.438m0-2a.5.5 0 0 0-.354.147.5.5 0 0 0-.146.352.5.5 0 1 0 1 0 .5.5 0 0 0-.5-.5Z"/></svg>