<svg xmlns="http://www.w3.org/2000/svg" viewBox="0 0 24 24" fill="currentColor" stroke-width="2"><path d="M20.437 11H3.563a1.5 1.5 0 0 1-1.5-1.5V5.565a1.5 1.5 0 0 1 1.5-1.5h16.874a1.5 1.5 0 0 1 1.5 1.5v3.93a1.5 1.5 0 0 1-1.5 1.505M3.563 5.065a.5.5 0 0 0-.5.5v3.93a.5.5 0 0 0 .5.5h16.874a.5.5 0 0 0 .5-.5v-3.93a.5.5 0 0 0-.5-.5ZM20.437 19.935H3.563a1.5 1.5 0 0 1-1.5-1.5v-3.93a1.5 1.5 0 0 1 1.5-1.5h16.874a1.5 1.5 0 0 1 1.5 1.5v3.93a1.5 1.5 0 0 1-1.5 1.5m-16.874-5.93a.5.5 0 0 0-.5.5v3.93a.5.5 0 0 0 .5.5h16.874a.5.5 0 0 0 .5-.5v-3.93a.5.5 0 0 0-.5-.5Z"/><circle cx="5.563" cy="7.53" r=".5"/><circle cx="7.563" cy="7.53" r=".5"/><path d="M13.452 8.03a.5.5 0 0 1 0-1h5a.5.5 0 0 1 0 1Z"/><circle cx="5.563" cy="16.47" r=".5"/><circle cx="7.563" cy="16.47" r=".5"/><path d="M13.452 16.97a.5.5 0 0 1 0-1h5a.5.5 0 0 1 0 1Z"/></svg>