<svg xmlns="http://www.w3.org/2000/svg" viewBox="0 0 24 24" fill="currentColor" stroke-width="2"><g data-name="Square Question"><path d="M11.41 12.461a1.56 1.56 0 0 1 .341-.6 2.7 2.7 0 0 1 .535-.417 2.2 2.2 0 0 0 .363-.285 1.2 1.2 0 0 0 .256-.364 1.1 1.1 0 0 0 .095-.451.93.93 0 0 0-.142-.518.95.95 0 0 0-.374-.338 1.14 1.14 0 0 0-.519-.119 1.2 1.2 0 0 0-.5.107.93.93 0 0 0-.389.335.9.9 0 0 0-.111.224.515.515 0 0 1-.483.359.506.506 0 0 1-.479-.675 1.7 1.7 0 0 1 .178-.348 1.8 1.8 0 0 1 .748-.634 2.6 2.6 0 0 1 2.113.015 1.73 1.73 0 0 1 .721.642 1.77 1.77 0 0 1 .257.959 1.8 1.8 0 0 1-.118.678 1.7 1.7 0 0 1-.334.536 2.3 2.3 0 0 1-.52.417 2.3 2.3 0 0 0-.462.37 1.1 1.1 0 0 0-.256.454 2 2 0 0 0-.045.283.486.486 0 0 1-.483.429.484.484 0 0 1-.483-.53 3 3 0 0 1 .091-.529"/><circle cx="11.792" cy="14.894" r=".587"/><path d="M18.438 20.938H5.563a2.5 2.5 0 0 1-2.5-2.5V5.564a2.5 2.5 0 0 1 2.5-2.5h12.875a2.5 2.5 0 0 1 2.5 2.5v12.874a2.5 2.5 0 0 1-2.5 2.5M5.563 4.064a1.5 1.5 0 0 0-1.5 1.5v12.874a1.5 1.5 0 0 0 1.5 1.5h12.875a1.5 1.5 0 0 0 1.5-1.5V5.564a1.5 1.5 0 0 0-1.5-1.5Z"/></g></svg>