<svg xmlns="http://www.w3.org/2000/svg" viewBox="0 0 24 24" fill="currentColor" stroke-width="2"><g data-name="Stream Off"><path d="M4.911 4.206c-.45-.45-1.16.26-.71.71l.32.32v.01A10.646 10.646 0 0 0 5.541 19.8c.48.43 1.19-.28.71-.71a9.623 9.623 0 0 1-1.01-13.13l2.27 2.27a6.02 6.02 0 0 0 .61 8.18c.48.44 1.19-.27.71-.7a5.024 5.024 0 0 1-.61-6.77l2.61 2.61a1.1 1.1 0 0 0-.09.45 1.25 1.25 0 0 0 1.25 1.24 1.1 1.1 0 0 0 .45-.09l4.77 4.77.86.86a3 3 0 0 1-.31.31.36.36 0 0 0-.11.16.4.4 0 0 0-.04.19.4.4 0 0 0 .04.19.4.4 0 0 0 .11.17.5.5 0 0 0 .35.14.6.6 0 0 0 .13-.02.43.43 0 0 0 .22-.12c.11-.1.22-.2.32-.3.1.09.19.19.29.29.45.45 1.16-.26.71-.71ZM17.73 4.908a9.62 9.62 0 0 1 2.3 11.1c-.265.582.6 1.09.864.505A10.65 10.65 0 0 0 18.438 4.2c-.475-.433-1.185.272-.708.707ZM15.15 8.291a5.02 5.02 0 0 1 1.6 4.572.515.515 0 0 0 .349.615.5.5 0 0 0 .615-.349 6.04 6.04 0 0 0-1.852-5.546c-.476-.431-1.185.274-.708.708Z"/></g></svg>