<svg xmlns="http://www.w3.org/2000/svg" viewBox="0 0 24 24" fill="currentColor" stroke-width="2"><path d="M15.247 13.836a3.12 3.12 0 0 0 .79-2.78 1.05 1.05 0 0 0-.8-.81 3.1 3.1 0 0 0 .8-2.79 1.06 1.06 0 0 0-.82-.82 3.2 3.2 0 0 0-2.04.25A3.1 3.1 0 0 0 14 4.816a3.1 3.1 0 0 0-1.41-2.57 1.04 1.04 0 0 0-1.16-.01A3.12 3.12 0 0 0 10 4.816a3.05 3.05 0 0 0 .83 2.07 3.15 3.15 0 0 0-2.04-.25 1.05 1.05 0 0 0-.82.82 3.1 3.1 0 0 0 .79 2.79 1.04 1.04 0 0 0-.79.81 3.11 3.11 0 0 0 .78 2.78 1.07 1.07 0 0 0-.78.82 3.03 3.03 0 0 0 3 3.7 2.4 2.4 0 0 0 .53-.05v3.15a.5.5 0 0 0 1 0v-3.15a2.5 2.5 0 0 0 .54.05 3.05 3.05 0 0 0 2.17-.88 3.12 3.12 0 0 0 .83-2.82 1.08 1.08 0 0 0-.793-.82m-3.83 3.48a2.12 2.12 0 0 1-1.92-.55 2.04 2.04 0 0 1-.51-1.96 2.6 2.6 0 0 1 .47-.04 1.98 1.98 0 0 1 1.45.59 2.01 2.01 0 0 1 .51 1.96m0-3.6a2.11 2.11 0 0 1-1.92-.55 2.02 2.02 0 0 1-.51-1.95 2 2 0 0 1 .47-.05 1.98 1.98 0 0 1 1.45.59 2.01 2.01 0 0 1 .51 1.96m0-3.6a2.11 2.11 0 0 1-1.92-.55 2.02 2.02 0 0 1-.51-1.95 2.6 2.6 0 0 1 .47-.05 1.98 1.98 0 0 1 1.45.59 2.01 2.01 0 0 1 .51 1.96m.56-3.55A2.1 2.1 0 0 1 11 4.816a2 2 0 0 1 1.04-1.74 2.1 2.1 0 0 1 .96 1.74 2.05 2.05 0 0 1-1.023 1.75m2.53 10.2a2.07 2.07 0 0 1-1.96.51 2.4 2.4 0 0 1-.05-.45v-.02a2.07 2.07 0 0 1 .59-1.46 2 2 0 0 1 1.4-.57 2.3 2.3 0 0 1 .57.07 2.14 2.14 0 0 1-.55 1.92m0-3.6a2.05 2.05 0 0 1-1.96.51 2.4 2.4 0 0 1-.05-.45v-.02a2.02 2.02 0 0 1 .59-1.45 1.96 1.96 0 0 1 1.4-.58 3 3 0 0 1 .57.07 2.14 2.14 0 0 1-.55 1.92m0-3.6a2.02 2.02 0 0 1-1.96.51 2.4 2.4 0 0 1-.05-.45v-.02a2.02 2.02 0 0 1 .59-1.45 1.96 1.96 0 0 1 1.41-.57 2.3 2.3 0 0 1 .56.07 2.12 2.12 0 0 1-.55 1.91"/></svg>