<svg xmlns="http://www.w3.org/2000/svg" width="24" height="24" fill="none" viewBox="0 0 24 24" stroke-width="2"><path fill="currentColor" fill-rule="evenodd" d="M14.586 5.293a1 1 0 0 0 0 1.414L19.879 12l-5.293 5.293a1 1 0 0 0 0 1.414l.707.707a1 1 0 0 0 1.414 0l6.354-6.353a1.5 1.5 0 0 0 0-2.122l-6.354-6.353a1 1 0 0 0-1.414 0zM9.414 5.293a1 1 0 0 1 0 1.414L4.121 12l5.293 5.293a1 1 0 0 1 0 1.414l-.707.707a1 1 0 0 1-1.414 0L.939 13.061a1.5 1.5 0 0 1 0-2.122l6.354-6.353a1 1 0 0 1 1.414 0z" clip-rule="evenodd"/></svg>