<svg xmlns="http://www.w3.org/2000/svg" width="24" height="24" fill="none" viewBox="0 0 24 24" stroke-width="2"><path fill="currentColor" d="M7 4a2.5 2.5 0 1 1-5 0 2.5 2.5 0 0 1 5 0M14.5 4a2.5 2.5 0 1 1-5 0 2.5 2.5 0 0 1 5 0M19.5 6.5a2.5 2.5 0 1 0 0-5 2.5 2.5 0 0 0 0 5M7 12a2.5 2.5 0 1 1-5 0 2.5 2.5 0 0 1 5 0M12 14.5a2.5 2.5 0 1 0 0-5 2.5 2.5 0 0 0 0 5M22 12a2.5 2.5 0 1 1-5 0 2.5 2.5 0 0 1 5 0M4.5 22.5a2.5 2.5 0 1 0 0-5 2.5 2.5 0 0 0 0 5M14.5 20a2.5 2.5 0 1 1-5 0 2.5 2.5 0 0 1 5 0M19.5 22.5a2.5 2.5 0 1 0 0-5 2.5 2.5 0 0 0 0 5"/></svg>