<svg xmlns="http://www.w3.org/2000/svg" width="24" height="24" fill="none" viewBox="0 0 24 24" stroke-width="2"><path fill="currentColor" fill-rule="evenodd" d="M1 12C1 5.925 5.925 1 12 1s11 4.925 11 11-4.925 11-11 11S1 18.075 1 12m8-1.5a1.5 1.5 0 1 0 0-3 1.5 1.5 0 0 0 0 3m6 0a1.5 1.5 0 1 0 0-3 1.5 1.5 0 0 0 0 3m-6.203 6.104A1 1 0 0 1 7.4 16.8a1.01 1.01 0 0 1-.198-1.403 5 5 0 0 1 .35-.402c.211-.22.521-.512.922-.804.798-.58 2-1.191 3.526-1.191s2.728.61 3.526 1.191c.4.292.71.583.922.804.123.129.244.262.35.404h.002a1 1 0 0 1-1.597 1.205l-.005-.006-.033-.041a4.94 4.94 0 0 0-.815-.748c-.578-.42-1.376-.81-2.35-.81s-1.772.39-2.35.81a5 5 0 0 0-.815.748l-.034.041z" clip-rule="evenodd"/></svg>