<svg xmlns="http://www.w3.org/2000/svg" width="24" height="24" fill="none" viewBox="0 0 24 24" stroke-width="2"><path fill="currentColor" d="M7 9.5A2.5 2.5 0 0 0 9.5 7V2.5a1 1 0 0 0-1-1h-1a1 1 0 0 0-1 1v4h-4a1 1 0 0 0-1 1v1a1 1 0 0 0 1 1zM17 9.5A2.5 2.5 0 0 1 14.5 7V2.5a1 1 0 0 1 1-1h1a1 1 0 0 1 1 1v4h4a1 1 0 0 1 1 1v1a1 1 0 0 1-1 1zM17 14.5a2.5 2.5 0 0 0-2.5 2.5v4.5a1 1 0 0 0 1 1h1a1 1 0 0 0 1-1v-4h4a1 1 0 0 0 1-1v-1a1 1 0 0 0-1-1zM9.5 17A2.5 2.5 0 0 0 7 14.5H2.5a1 1 0 0 0-1 1v1a1 1 0 0 0 1 1h4v4a1 1 0 0 0 1 1h1a1 1 0 0 0 1-1z"/></svg>