<svg xmlns="http://www.w3.org/2000/svg" width="24" height="24" fill="none" viewBox="0 0 24 24" stroke-width="2"><path fill="currentColor" d="M12.447 1.106a1 1 0 0 0-.894 0l-10 5a1 1 0 0 0 0 1.788l10 5a1 1 0 0 0 .894 0l10-5a1 1 0 0 0 0-1.788zM1.106 16.553a1 1 0 0 1 1.341-.448L12 20.883l9.553-4.777a1 1 0 0 1 .894 1.79l-10 5a1 1 0 0 1-.894 0l-10-5a1 1 0 0 1-.447-1.342"/><path fill="currentColor" d="M2.447 11.106a1 1 0 0 0-.894 1.788l10 5a1 1 0 0 0 .894 0l10-5a1 1 0 1 0-.894-1.789L12 15.883z"/></svg>