<svg xmlns="http://www.w3.org/2000/svg" width="24" height="24" fill="none" viewBox="0 0 24 24" stroke-width="2"><path fill="currentColor" d="M8 7.5a4.5 4.5 0 0 0 0 9h1.5a1 1 0 0 1 1 1v1a1 1 0 0 1-1 1H8a7.5 7.5 0 0 1 0-15h1.5a1 1 0 0 1 1 1v1a1 1 0 0 1-1 1z"/><path fill="currentColor" d="M6.5 11.5a1 1 0 0 1 1-1h9a1 1 0 0 1 1 1v1a1 1 0 0 1-1 1h-9a1 1 0 0 1-1-1z"/><path fill="currentColor" d="M20.5 12A4.5 4.5 0 0 0 16 7.5h-1.5a1 1 0 0 1-1-1v-1a1 1 0 0 1 1-1H16a7.5 7.5 0 0 1 0 15h-1.5a1 1 0 0 1-1-1v-1a1 1 0 0 1 1-1H16a4.5 4.5 0 0 0 4.5-4.5"/></svg>