<svg xmlns="http://www.w3.org/2000/svg" width="24" height="24" fill="none" viewBox="0 0 24 24" stroke-width="2"><path fill="currentColor" d="M16.448 1.5a6.1 6.1 0 0 0-4.298 1.726l-.015.015-.489.489a1 1 0 0 0 0 1.414l.707.707a1 1 0 0 0 1.415 0l.48-.48a3.1 3.1 0 0 1 2.174-.87 3.1 3.1 0 0 1 2.165.914c.577.581.906 1.369.913 2.195a3.16 3.16 0 0 1-.867 2.202l-3.112 3.131a3.077 3.077 0 0 1-3.962.356c-.452-.317-1.073-.427-1.516-.098l-.803.596c-.444.33-.541.963-.144 1.347a6.1 6.1 0 0 0 3.796 1.7 6.08 6.08 0 0 0 4.758-1.787l3.121-3.14.019-.02a6.15 6.15 0 0 0 1.71-4.313 6.15 6.15 0 0 0-1.785-4.283 6.1 6.1 0 0 0-4.267-1.8"/><path fill="currentColor" d="M11.108 7.157A6.08 6.08 0 0 0 6.35 8.943l-3.121 3.14-.019.02a6.15 6.15 0 0 0-1.71 4.313 6.15 6.15 0 0 0 1.784 4.283 6.1 6.1 0 0 0 4.268 1.8 6.1 6.1 0 0 0 4.298-1.726l.015-.014.489-.489a1 1 0 0 0 0-1.414l-.708-.707a1 1 0 0 0-1.414 0l-.48.48a3.1 3.1 0 0 1-2.174.87 3.1 3.1 0 0 1-2.165-.914A3.15 3.15 0 0 1 4.5 16.39a3.16 3.16 0 0 1 .867-2.202l3.112-3.131a3.075 3.075 0 0 1 3.962-.356c.452.317 1.073.427 1.516.098l.803-.596c.444-.33.541-.963.144-1.347a6.1 6.1 0 0 0-3.796-1.7"/></svg>