<svg xmlns="http://www.w3.org/2000/svg" width="24" height="24" fill="none" viewBox="0 0 24 24" stroke-width="2"><path fill="currentColor" fill-rule="evenodd" d="m11.386 23.789-.003-.002-.006-.005-.022-.017-.08-.064q-.106-.084-.298-.242a40.773 40.773 0 0 1-4.22-4.04c-1.154-1.282-2.33-2.78-3.222-4.366C2.648 13.476 2 11.739 2 10a10 10 0 0 1 20 0c0 1.74-.648 3.476-1.535 5.053-.892 1.586-2.068 3.084-3.222 4.366a41 41 0 0 1-4.517 4.282l-.081.064-.022.017-.006.005-.002.002L12 23l.614.79a1 1 0 0 1-1.228-.001M12 23l-.614.789zm3-13a3 3 0 1 1-6 0 3 3 0 0 1 6 0" clip-rule="evenodd"/></svg>