<svg xmlns="http://www.w3.org/2000/svg" width="24" height="24" fill="none" viewBox="0 0 24 24" stroke-width="2"><path fill="currentColor" d="M22.354 3.768a1 1 0 0 0 0-1.414l-.708-.708a1 1 0 0 0-1.414 0L10.02 11.86a14 14 0 0 1-1.062-1.714.95.95 0 0 1 .266-1.182l.798-.64a1.824 1.824 0 0 0 .542-2.124l-1.28-3.078A1.82 1.82 0 0 0 7.606 2h-3.06c-1.43 0-2.641 1.112-2.54 2.542.287 4.064 1.952 7.83 4.513 10.818l-4.873 4.872a1 1 0 0 0 0 1.414l.708.707a1 1 0 0 0 1.414 0zM9.82 18.419l3.405-3.405q.183.129.371.253c.412.27.956.162 1.263-.223l.831-1.041a1.816 1.816 0 0 1 2.12-.544l3.071 1.283A1.82 1.82 0 0 1 22 16.424V19.5c0 1.433-1.151 2.596-2.578 2.494-3.527-.25-6.834-1.548-9.602-3.575"/><path fill="currentColor" d="M20.232 1.646a1 1 0 0 1 1.414 0l.707.708a1 1 0 0 1 0 1.414L3.768 22.354l-.077.068a1 1 0 0 1-1.337-.069l-.708-.707a1 1 0 0 1-.068-1.337l.068-.077L6.52 15.36c-2.48-2.895-4.121-6.52-4.482-10.438l-.031-.38c-.095-1.34.963-2.402 2.274-2.53L4.545 2h3.061l.137.005a1.82 1.82 0 0 1 1.484.992l.057.124 1.28 3.078c.312.75.09 1.616-.542 2.124l-.798.64a.95.95 0 0 0-.266 1.182q.47.898 1.062 1.714zM21 16.424c0-.333-.2-.632-.504-.759l-3.072-1.283a.82.82 0 0 0-.86.146l-.092.099-.831 1.041c-.531.665-1.454.94-2.264.607l-1.998 1.998c2.413 1.541 5.187 2.515 8.114 2.723.798.057 1.507-.592 1.507-1.496zm-11.1-3.03-.69-.948a15 15 0 0 1-1.139-1.839c-.448-.858-.174-1.862.528-2.424l.797-.64.098-.093c.179-.2.25-.475.189-.737l-.042-.13-1.28-3.078A.82.82 0 0 0 7.606 3H4.545c-.946 0-1.596.713-1.542 1.472.254 3.594 1.652 6.953 3.829 9.697l.446.54.603.703-5.527 5.527.707.707L21.647 3.061l-.707-.707zM22 19.5l-.014.266c-.131 1.307-1.227 2.323-2.564 2.228-3.527-.25-6.834-1.548-9.602-3.575l3.405-3.405q.183.129.371.253c.412.27.956.162 1.263-.223l.831-1.041a1.816 1.816 0 0 1 2.12-.544l3.071 1.283A1.82 1.82 0 0 1 22 16.424z"/></svg>