<svg xmlns="http://www.w3.org/2000/svg" width="24" height="24" fill="none" viewBox="0 0 24 24" stroke-width="2"><path fill="currentColor" d="M23.414 1.293a1 1 0 0 1 0 1.414l-2.828 2.828 2.828 2.829a1 1 0 0 1 0 1.414l-.707.707a1 1 0 0 1-1.414 0l-2.828-2.828-2.829 2.828a1 1 0 0 1-1.414 0l-.707-.707a1 1 0 0 1 0-1.414l2.828-2.829-2.828-2.828a1 1 0 0 1 0-1.414l.707-.707a1 1 0 0 1 1.414 0l2.829 2.828L21.293.586a1 1 0 0 1 1.414 0z"/><path fill="currentColor" d="M4.545 2c-1.43 0-2.64 1.112-2.54 2.542.647 9.16 8.297 16.803 17.418 17.452 1.426.102 2.536-1.111 2.536-2.544v-1.963H22v-1.063c0-.736-.441-1.4-1.119-1.682l-3.072-1.283a1.816 1.816 0 0 0-2.119.544l-.831 1.041c-.307.385-.851.492-1.263.223a13.7 13.7 0 0 1-4.638-5.122.95.95 0 0 1 .266-1.182l.798-.64a1.824 1.824 0 0 0 .542-2.124l-1.28-3.078A1.82 1.82 0 0 0 7.606 2z"/><path fill="currentColor" d="M21 16.424c0-.333-.2-.632-.504-.76l-3.072-1.282a.82.82 0 0 0-.86.146l-.092.099-.831 1.042c-.604.756-1.717 1.008-2.593.434a14.7 14.7 0 0 1-4.752-5.082l-.225-.414c-.448-.858-.174-1.862.528-2.425l.798-.64.097-.092c.179-.2.25-.475.189-.737l-.042-.13-1.28-3.078A.82.82 0 0 0 7.607 3H4.545c-.946 0-1.596.713-1.542 1.471.612 8.664 7.867 15.912 16.49 16.526l.14.002c.698-.03 1.326-.655 1.326-1.549v-2.964H21zM21.293.586a1 1 0 0 1 1.414 0l.707.707a1 1 0 0 1 0 1.414l-2.828 2.828 2.828 2.829a1 1 0 0 1 0 1.414l-.707.707-.076.069a1 1 0 0 1-1.262 0l-.076-.069-2.828-2.828-2.829 2.828-.075.069a1 1 0 0 1-1.263 0l-.076-.069-.707-.707a1 1 0 0 1-.069-1.338l.069-.076 2.828-2.829-2.828-2.828a1 1 0 0 1-.069-1.338l.069-.076.707-.707a1 1 0 0 1 1.414 0l2.829 2.828zm-2.828 4.242-3.536-3.535-.707.707 3.536 3.535-3.536 3.536.707.707 3.536-3.535L22 9.778l.707-.707-3.535-3.536L22.707 2 22 1.293zM22 17.487h-.041v1.963l-.012.266c-.128 1.313-1.187 2.373-2.524 2.278C10.445 21.355 2.89 13.939 2.04 4.97l-.035-.428c-.095-1.34.963-2.402 2.274-2.53L4.545 2h3.061l.137.005a1.82 1.82 0 0 1 1.485.992l.056.124 1.28 3.078c.312.75.09 1.616-.542 2.124l-.798.64a.96.96 0 0 0-.302 1.105l.036.077a13.7 13.7 0 0 0 4.638 5.122c.412.27.956.162 1.263-.223l.831-1.041a1.816 1.816 0 0 1 2.12-.544l3.071 1.283A1.82 1.82 0 0 1 22 16.424z"/></svg>