<svg xmlns="http://www.w3.org/2000/svg" width="24" height="24" fill="none" viewBox="0 0 24 24" stroke-width="2"><path fill="currentColor" d="M2.5 3a1 1 0 0 1 1-1h1a1 1 0 0 1 1 1v6a1 1 0 0 1-1 1h-1a1 1 0 0 1-1-1zM2.5 15.5H1a1 1 0 0 1-1-1v-1a1 1 0 0 1 1-1h6a1 1 0 0 1 1 1v1a1 1 0 0 1-1 1H5.5V21a1 1 0 0 1-1 1h-1a1 1 0 0 1-1-1zM23 15.5h-1.5V21a1 1 0 0 1-1 1h-1a1 1 0 0 1-1-1v-5.5H17a1 1 0 0 1-1-1v-1a1 1 0 0 1 1-1h6a1 1 0 0 1 1 1v1a1 1 0 0 1-1 1M19.5 2a1 1 0 0 0-1 1v6a1 1 0 0 0 1 1h1a1 1 0 0 0 1-1V3a1 1 0 0 0-1-1zM10.5 13a1 1 0 0 1 1-1h1a1 1 0 0 1 1 1v8a1 1 0 0 1-1 1h-1a1 1 0 0 1-1-1zM11.5 2a1 1 0 0 0-1 1v3.5H9a1 1 0 0 0-1 1v1a1 1 0 0 0 1 1h6a1 1 0 0 0 1-1v-1a1 1 0 0 0-1-1h-1.5V3a1 1 0 0 0-1-1z"/></svg>