<svg xmlns="http://www.w3.org/2000/svg" width="24" height="24" fill="none" viewBox="0 0 24 24" stroke-width="2"><path fill="currentColor" d="M6.5 8.5a1 1 0 0 0-1 1v1a1 1 0 0 0 1 1h7a1 1 0 0 0 1-1v-1a1 1 0 0 0-1-1z"/><path fill="currentColor" fill-rule="evenodd" d="M.5 10a9.5 9.5 0 1 1 19 0c0 2.082-.67 4.008-1.806 5.573l4.72 4.72a1 1 0 0 1 0 1.414l-.707.707a1 1 0 0 1-1.414 0l-4.72-4.72A9.46 9.46 0 0 1 10 19.5 9.5 9.5 0 0 1 .5 10M10 3.5a6.5 6.5 0 1 0 0 13 6.5 6.5 0 0 0 0-13" clip-rule="evenodd"/></svg>